<?xml version="1.0" standalone="no"?>
<!DOCTYPE svg PUBLIC "-//W3C//DTD SVG 20010904//EN"
 "http://www.w3.org/TR/2001/REC-SVG-20010904/DTD/svg10.dtd">
<svg version="1.0" xmlns="http://www.w3.org/2000/svg"
 width="445.000000pt" height="445.000000pt" viewBox="0 0 445.000000 445.000000"
 preserveAspectRatio="xMidYMid meet">
<metadata>
Created by potrace 1.11, written by Peter Selinger 2001-2013
</metadata>
<g transform="translate(0.000000,445.000000) scale(0.100000,-0.100000)"
fill="#000000" stroke="none">
<path d="M2220 3742 c-8 -3 -18 -10 -22 -15 -3 -6 -6 -176 -6 -378 0 -398 0
-398 53 -385 19 5 25 13 26 34 1 38 1 671 0 704 -1 29 -26 49 -51 40z"/>
<path d="M1609 3644 c-7 -8 -7 -24 -1 -46 13 -45 211 -588 223 -610 12 -22 42
-23 59 -3 11 13 -1 54 -70 243 -45 125 -95 265 -112 312 -16 47 -36 92 -44
101 -17 19 -40 20 -55 3z"/>
<path d="M2808 3648 c-17 -14 -238 -612 -238 -645 0 -23 24 -36 49 -28 11 3
49 94 114 272 149 413 138 375 120 396 -19 20 -24 21 -45 5z"/>
<path d="M3056 2766 c-61 -62 -111 -117 -113 -122 -2 -6 46 -59 106 -119 141
-140 165 -183 166 -290 0 -100 -26 -158 -102 -223 -55 -47 -67 -75 -64 -145 2
-56 31 -115 84 -170 l45 -48 55 30 c63 34 81 48 143 108 191 187 238 475 117
721 -32 66 -59 98 -183 224 l-145 146 -109 -112z"/>
<path d="M1163 2760 c-132 -130 -172 -178 -207 -247 -14 -28 -34 -54 -45 -58
-60 -19 -164 -109 -439 -385 -289 -289 -372 -377 -372 -395 0 -5 -6 -16 -13
-24 -16 -19 -51 -108 -68 -171 -17 -65 -14 -205 6 -280 94 -360 456 -556 812
-439 114 37 173 86 513 428 304 305 395 407 344 386 -25 -10 -55 -15 -139 -23
-62 -7 -130 0 -256 25 -22 4 -53 -22 -250 -219 -236 -236 -262 -258 -321 -277
-148 -48 -309 32 -362 179 -26 72 -19 172 17 232 39 68 599 622 656 650 63 31
175 32 243 1 44 -20 128 -95 128 -115 0 -15 54 -30 109 -29 33 0 69 8 95 21
46 23 126 94 126 113 0 22 -57 112 -106 166 -61 68 -138 125 -216 159 l-60 28
74 74 75 75 -117 117 -117 118 -110 -110z"/>
<path d="M2985 2429 c-104 -55 -200 -155 -257 -269 -24 -47 -44 -87 -46 -89
-1 -3 -38 32 -82 78 l-81 82 -102 -103 c-56 -57 -108 -111 -115 -119 -11 -14
4 -32 102 -131 134 -134 174 -168 245 -203 38 -20 56 -37 72 -68 12 -23 34
-60 50 -83 46 -68 648 -664 713 -705 121 -80 248 -110 394 -97 156 15 282 78
393 196 198 212 228 517 74 758 -61 96 -733 759 -751 741 -1 -1 4 -29 11 -62
18 -73 13 -238 -8 -312 l-15 -53 233 -233 c146 -147 241 -249 255 -277 15 -30
25 -69 28 -116 4 -62 1 -80 -21 -128 -51 -111 -137 -168 -257 -172 -123 -4
-135 4 -459 327 -156 155 -296 300 -312 322 -53 73 -65 167 -31 262 12 35 36
69 85 117 65 66 67 69 67 119 0 29 -5 70 -12 92 -12 40 -100 147 -122 147 -6
0 -29 -10 -51 -21z"/>
<path d="M1805 2115 c-55 -57 -122 -116 -150 -132 -44 -25 -60 -28 -135 -28
-69 0 -93 5 -127 23 -42 22 -123 96 -123 112 0 13 -60 30 -109 30 -60 0 -135
-36 -186 -89 l-40 -42 30 -57 c43 -82 173 -209 260 -254 148 -76 323 -92 470
-43 129 43 174 75 332 230 l123 121 -113 117 c-62 64 -117 117 -122 116 -6 0
-55 -47 -110 -104z"/>
<path d="M2184 1789 c-3 -6 -7 -70 -7 -143 -1 -115 1 -131 16 -134 15 -3 17
11 17 137 0 128 -7 169 -26 140z"/>
<path d="M2045 1778 c-3 -7 -22 -58 -43 -114 -21 -55 -36 -106 -34 -112 7 -23
20 -11 37 36 9 26 28 75 41 110 13 34 24 69 24 77 0 18 -19 20 -25 3z"/>
<path d="M2318 1785 c-8 -8 78 -239 91 -243 19 -6 12 28 -28 138 -35 96 -49
119 -63 105z"/>
</g>
</svg>
